<!-- Generated by IcoMoon.io -->
<svg version="1.1" xmlns="http://www.w3.org/2000/svg" width="32" height="32" viewBox="0 0 32 32">
<title>mega</title>
<path fill="#d9272e" d="M16 0c-8.837 0-16 7.163-16 16s7.163 16 16 16 16-7.163 16-16-7.163-16-16-16zM24.307 21.659c0 0 0 0.001 0 0.001 0 0.273-0.221 0.495-0.495 0.495-0.001 0-0.002 0-0.003 0h-2.089c-0 0-0.001 0-0.001 0-0.273 0-0.495-0.221-0.495-0.495 0-0 0-0.001 0-0.001v0-6.437c0-0.053-0.061-0.080-0.107-0.044l-4.427 4.427c-0.179 0.177-0.424 0.286-0.695 0.286s-0.517-0.109-0.695-0.286l-4.427-4.427c-0.036-0.036-0.107-0.009-0.107 0.044v6.437c0 0 0 0.001 0 0.001 0 0.273-0.221 0.495-0.495 0.495-0 0-0.001 0-0.001 0h-2.089c-0 0-0.001 0-0.001 0-0.273 0-0.495-0.221-0.495-0.495 0-0 0-0.001 0-0.001v0-11.316c0-0.275 0.221-0.496 0.496-0.496h1.435c0.274 0.002 0.521 0.114 0.7 0.293v0l5.507 5.507c0.044 0.046 0.105 0.074 0.173 0.074s0.13-0.028 0.173-0.074l5.507-5.507c0.187-0.187 0.433-0.293 0.7-0.293h1.433c0.275 0 0.496 0.221 0.496 0.496z"></path>
</svg>
